<svg width="354" height="82" viewBox="0 0 354 82" fill="none" xmlns="http://www.w3.org/2000/svg">
<path d="M13 9H347V73H13H7V15H13V9Z" fill="white"/>
<path d="M104.332 39.3926V48.0801C104.009 48.5072 103.504 48.9759 102.816 49.4863C102.139 49.9863 101.238 50.4186 100.113 50.7832C98.9883 51.1478 97.5872 51.3301 95.9102 51.3301C94.4831 51.3301 93.1758 51.0905 91.9883 50.6113C90.8008 50.1217 89.7747 49.4082 88.9102 48.4707C88.056 47.5332 87.3945 46.3926 86.9258 45.0488C86.457 43.6947 86.2227 42.153 86.2227 40.4238V38.8457C86.2227 37.127 86.4362 35.5957 86.8633 34.252C87.3008 32.8978 87.9258 31.752 88.7383 30.8145C89.5508 29.877 90.5299 29.1686 91.6758 28.6895C92.832 28.1999 94.1393 27.9551 95.5977 27.9551C97.4622 27.9551 99.0039 28.2676 100.223 28.8926C101.452 29.5072 102.4 30.3613 103.066 31.4551C103.733 32.5488 104.155 33.7988 104.332 35.2051H100.488C100.363 34.4134 100.118 33.7051 99.7539 33.0801C99.3997 32.4551 98.8893 31.9655 98.2227 31.6113C97.5664 31.2467 96.7122 31.0645 95.6602 31.0645C94.7539 31.0645 93.957 31.2363 93.2695 31.5801C92.582 31.9238 92.0091 32.429 91.5508 33.0957C91.1029 33.7624 90.7643 34.5749 90.5352 35.5332C90.306 36.4915 90.1914 37.5853 90.1914 38.8145V40.4238C90.1914 41.6738 90.3216 42.7832 90.582 43.752C90.8529 44.7207 91.2383 45.5384 91.7383 46.2051C92.2487 46.8717 92.8685 47.377 93.5977 47.7207C94.3268 48.054 95.1497 48.2207 96.0664 48.2207C96.9622 48.2207 97.6966 48.1478 98.2695 48.002C98.8424 47.8457 99.2956 47.6634 99.6289 47.4551C99.9727 47.2363 100.238 47.028 100.426 46.8301V42.3145H95.6914V39.3926H104.332ZM115.754 51.3301C114.504 51.3301 113.374 51.127 112.363 50.7207C111.363 50.304 110.509 49.7259 109.801 48.9863C109.103 48.2467 108.566 47.377 108.191 46.377C107.816 45.377 107.629 44.2988 107.629 43.1426V42.5176C107.629 41.1947 107.822 39.9967 108.207 38.9238C108.592 37.8509 109.129 36.9342 109.816 36.1738C110.504 35.403 111.316 34.8145 112.254 34.4082C113.191 34.002 114.207 33.7988 115.301 33.7988C116.509 33.7988 117.566 34.002 118.473 34.4082C119.379 34.8145 120.129 35.3874 120.723 36.127C121.327 36.8561 121.775 37.7259 122.066 38.7363C122.368 39.7467 122.52 40.8613 122.52 42.0801V43.6895H109.457V40.9863H118.801V40.6895C118.78 40.0124 118.645 39.377 118.395 38.7832C118.155 38.1895 117.785 37.7103 117.285 37.3457C116.785 36.9811 116.118 36.7988 115.285 36.7988C114.66 36.7988 114.103 36.9342 113.613 37.2051C113.134 37.4655 112.733 37.8457 112.41 38.3457C112.087 38.8457 111.837 39.4499 111.66 40.1582C111.493 40.8561 111.41 41.6426 111.41 42.5176V43.1426C111.41 43.8822 111.509 44.5697 111.707 45.2051C111.915 45.8301 112.217 46.377 112.613 46.8457C113.009 47.3145 113.488 47.6842 114.051 47.9551C114.613 48.2155 115.254 48.3457 115.973 48.3457C116.879 48.3457 117.686 48.1634 118.395 47.7988C119.103 47.4342 119.717 46.9186 120.238 46.252L122.223 48.1738C121.858 48.7051 121.384 49.2155 120.801 49.7051C120.217 50.1842 119.504 50.5749 118.66 50.877C117.827 51.179 116.858 51.3301 115.754 51.3301ZM133.207 34.1113V36.8613H123.676V34.1113H133.207ZM126.426 29.9707H130.191V46.3457C130.191 46.8665 130.264 47.2676 130.41 47.5488C130.566 47.8197 130.78 48.002 131.051 48.0957C131.322 48.1895 131.639 48.2363 132.004 48.2363C132.264 48.2363 132.514 48.2207 132.754 48.1895C132.993 48.1582 133.186 48.127 133.332 48.0957L133.348 50.9707C133.035 51.0645 132.671 51.1478 132.254 51.2207C131.848 51.2936 131.379 51.3301 130.848 51.3301C129.983 51.3301 129.217 51.179 128.551 50.877C127.884 50.5645 127.363 50.0592 126.988 49.3613C126.613 48.6634 126.426 47.7363 126.426 46.5801V29.9707ZM148.113 34.1113V51.0176H144.332V34.1113H148.113ZM144.082 29.6738C144.082 29.1009 144.27 28.627 144.645 28.252C145.03 27.8665 145.561 27.6738 146.238 27.6738C146.905 27.6738 147.431 27.8665 147.816 28.252C148.202 28.627 148.395 29.1009 148.395 29.6738C148.395 30.2363 148.202 30.7051 147.816 31.0801C147.431 31.4551 146.905 31.6426 146.238 31.6426C145.561 31.6426 145.03 31.4551 144.645 31.0801C144.27 30.7051 144.082 30.2363 144.082 29.6738ZM155.973 37.7207V51.0176H152.207V34.1113H155.754L155.973 37.7207ZM155.301 41.9395L154.082 41.9238C154.092 40.7259 154.259 39.627 154.582 38.627C154.915 37.627 155.374 36.7676 155.957 36.0488C156.551 35.3301 157.259 34.778 158.082 34.3926C158.905 33.9967 159.822 33.7988 160.832 33.7988C161.645 33.7988 162.379 33.9134 163.035 34.1426C163.702 34.3613 164.27 34.7207 164.738 35.2207C165.217 35.7207 165.582 36.3717 165.832 37.1738C166.082 37.9655 166.207 38.9395 166.207 40.0957V51.0176H162.426V40.0801C162.426 39.2676 162.306 38.627 162.066 38.1582C161.837 37.679 161.499 37.3405 161.051 37.1426C160.613 36.9342 160.066 36.8301 159.41 36.8301C158.764 36.8301 158.186 36.9655 157.676 37.2363C157.165 37.5072 156.733 37.877 156.379 38.3457C156.035 38.8145 155.77 39.3561 155.582 39.9707C155.395 40.5853 155.301 41.2415 155.301 41.9395ZM187.004 28.2676V51.0176H183.113V28.2676H187.004ZM194.145 28.2676V31.3926H176.035V28.2676H194.145ZM193.863 42.752V42.3926C193.863 41.1738 194.04 40.0436 194.395 39.002C194.749 37.9499 195.259 37.0384 195.926 36.2676C196.603 35.4863 197.426 34.8822 198.395 34.4551C199.374 34.0176 200.478 33.7988 201.707 33.7988C202.947 33.7988 204.051 34.0176 205.02 34.4551C205.999 34.8822 206.827 35.4863 207.504 36.2676C208.181 37.0384 208.697 37.9499 209.051 39.002C209.405 40.0436 209.582 41.1738 209.582 42.3926V42.752C209.582 43.9707 209.405 45.1009 209.051 46.1426C208.697 47.1842 208.181 48.0957 207.504 48.877C206.827 49.6478 206.004 50.252 205.035 50.6895C204.066 51.1165 202.967 51.3301 201.738 51.3301C200.499 51.3301 199.389 51.1165 198.41 50.6895C197.441 50.252 196.618 49.6478 195.941 48.877C195.264 48.0957 194.749 47.1842 194.395 46.1426C194.04 45.1009 193.863 43.9707 193.863 42.752ZM197.629 42.3926V42.752C197.629 43.5124 197.707 44.2311 197.863 44.9082C198.02 45.5853 198.264 46.179 198.598 46.6895C198.931 47.1999 199.358 47.6009 199.879 47.8926C200.4 48.1842 201.02 48.3301 201.738 48.3301C202.436 48.3301 203.04 48.1842 203.551 47.8926C204.072 47.6009 204.499 47.1999 204.832 46.6895C205.165 46.179 205.41 45.5853 205.566 44.9082C205.733 44.2311 205.816 43.5124 205.816 42.752V42.3926C205.816 41.6426 205.733 40.9342 205.566 40.2676C205.41 39.5905 205.16 38.9915 204.816 38.4707C204.483 37.9499 204.056 37.5436 203.535 37.252C203.025 36.9499 202.415 36.7988 201.707 36.7988C200.999 36.7988 200.384 36.9499 199.863 37.252C199.353 37.5436 198.931 37.9499 198.598 38.4707C198.264 38.9915 198.02 39.5905 197.863 40.2676C197.707 40.9342 197.629 41.6426 197.629 42.3926ZM222.91 47.0332V34.1113H226.691V51.0176H223.129L222.91 47.0332ZM223.441 43.5176L224.707 43.4863C224.707 44.6217 224.582 45.6686 224.332 46.627C224.082 47.5749 223.697 48.403 223.176 49.1113C222.655 49.8092 221.988 50.3561 221.176 50.752C220.363 51.1374 219.389 51.3301 218.254 51.3301C217.431 51.3301 216.676 51.2103 215.988 50.9707C215.301 50.7311 214.707 50.3613 214.207 49.8613C213.717 49.3613 213.337 48.7103 213.066 47.9082C212.796 47.1061 212.66 46.1478 212.66 45.0332V34.1113H216.426V45.0645C216.426 45.679 216.499 46.1947 216.645 46.6113C216.79 47.0176 216.988 47.3457 217.238 47.5957C217.488 47.8457 217.78 48.0228 218.113 48.127C218.447 48.2311 218.801 48.2832 219.176 48.2832C220.249 48.2832 221.092 48.0749 221.707 47.6582C222.332 47.2311 222.775 46.6582 223.035 45.9395C223.306 45.2207 223.441 44.4134 223.441 43.5176ZM237.457 48.3301C238.072 48.3301 238.624 48.2103 239.113 47.9707C239.613 47.7207 240.014 47.377 240.316 46.9395C240.629 46.502 240.801 45.9967 240.832 45.4238H244.379C244.358 46.5176 244.035 47.5124 243.41 48.4082C242.785 49.304 241.957 50.0176 240.926 50.5488C239.895 51.0697 238.754 51.3301 237.504 51.3301C236.212 51.3301 235.087 51.1113 234.129 50.6738C233.171 50.2259 232.374 49.6113 231.738 48.8301C231.103 48.0488 230.624 47.1478 230.301 46.127C229.988 45.1061 229.832 44.0124 229.832 42.8457V42.2988C229.832 41.1322 229.988 40.0384 230.301 39.0176C230.624 37.9863 231.103 37.0801 231.738 36.2988C232.374 35.5176 233.171 34.9082 234.129 34.4707C235.087 34.0228 236.207 33.7988 237.488 33.7988C238.842 33.7988 240.03 34.0697 241.051 34.6113C242.072 35.1426 242.874 35.8874 243.457 36.8457C244.051 37.7936 244.358 38.8978 244.379 40.1582H240.832C240.801 39.5332 240.645 38.9707 240.363 38.4707C240.092 37.9603 239.707 37.554 239.207 37.252C238.717 36.9499 238.129 36.7988 237.441 36.7988C236.681 36.7988 236.051 36.9551 235.551 37.2676C235.051 37.5697 234.66 37.9863 234.379 38.5176C234.098 39.0384 233.895 39.627 233.77 40.2832C233.655 40.929 233.598 41.6009 233.598 42.2988V42.8457C233.598 43.5436 233.655 44.2207 233.77 44.877C233.884 45.5332 234.082 46.1217 234.363 46.6426C234.655 47.153 235.051 47.5645 235.551 47.877C236.051 48.179 236.686 48.3301 237.457 48.3301ZM250.988 27.0176V51.0176H247.238V27.0176H250.988ZM250.332 41.9395L249.113 41.9238C249.124 40.7572 249.285 39.679 249.598 38.6895C249.921 37.6999 250.368 36.8405 250.941 36.1113C251.525 35.3717 252.223 34.804 253.035 34.4082C253.848 34.002 254.749 33.7988 255.738 33.7988C256.572 33.7988 257.322 33.9134 257.988 34.1426C258.665 34.3717 259.249 34.7415 259.738 35.252C260.228 35.752 260.598 36.4082 260.848 37.2207C261.108 38.0228 261.238 39.002 261.238 40.1582V51.0176H257.457V40.127C257.457 39.3145 257.337 38.6686 257.098 38.1895C256.868 37.7103 256.53 37.3665 256.082 37.1582C255.634 36.9395 255.087 36.8301 254.441 36.8301C253.764 36.8301 253.165 36.9655 252.645 37.2363C252.134 37.5072 251.707 37.877 251.363 38.3457C251.02 38.8145 250.759 39.3561 250.582 39.9707C250.415 40.5853 250.332 41.2415 250.332 41.9395Z" fill="#161F22"/>
<rect x="341.27" y="67" width="5.86667" height="5.86667" fill="white"/>
<path d="M1 30.902V1H265H353V30.902M1 47.8735V80.2H89H353V51.1061" stroke="white" stroke-width="2"/>
</svg>
